<?xml version="1.0" standalone="no"?>
<!DOCTYPE svg PUBLIC "-//W3C//DTD SVG 1.1//EN" "http://www.w3.org/Graphics/SVG/1.1/DTD/svg11.dtd" >
<svg xmlns="http://www.w3.org/2000/svg">
<metadata>Generated by IcoMoon</metadata>
<defs>
<font id="icon" horiz-adv-x="1024">
<font-face units-per-em="1024" ascent="960" descent="-64" />
<missing-glyph horiz-adv-x="1024" />
<glyph unicode="&#x20;" horiz-adv-x="512" d="" />
<glyph unicode="&#xe900;" glyph-name="angle-down" horiz-adv-x="1813" d="M820.142-29.468c-8.657 8.559-15.881 18.542-21.298 29.574l-0.285 0.642-767.166 766.97c-20.024 20.551-32.374 48.663-32.374 79.66s12.35 59.109 32.398 79.684l-0.024-0.025c20.298 20.42 48.405 33.058 79.463 33.058s59.165-12.638 79.458-33.053l0.005-0.006 714.19-712.621 712.228 712.621c20.298 20.42 48.405 33.058 79.463 33.058s59.165-12.638 79.458-33.053l0.005-0.006c20.882-20.156 33.849-48.394 33.849-79.66s-12.967-59.504-33.816-79.628l-0.033-0.031-767.166-766.97c-4.977-11.666-11.585-21.67-19.67-30.269l0.049 0.053c-20.611-20.192-48.863-32.653-80.025-32.653-1.528 0-3.048 0.030-4.561 0.089l0.218-0.007c-1.643-0.087-3.566-0.136-5.501-0.136-30.807 0-58.694 12.5-78.867 32.705l-0.001 0.001z" />
<glyph unicode="&#xe901;" glyph-name="angle-left" d="M220.146 448.008c0 18.345 7.005 36.695 20.983 50.687l440.308 440.297c28.009 28.009 73.42 28.009 101.417 0 27.997-27.997 27.997-73.399 0-101.41l-389.603-389.574 389.576-389.589c27.997-27.997 27.997-73.406 0-101.401-27.997-28.022-73.395-28.022-101.404 0l-440.31 440.29c-13.976 13.999-20.967 32.349-20.967 50.701z" />
<glyph unicode="&#xe902;" glyph-name="angle-right" d="M782.857 397.307l-440.304-440.29c-28.009-28.022-73.42-28.022-101.415 0-27.997 27.997-27.997 73.406 0 101.401l389.601 389.589-389.589 389.576c-27.997 28.009-27.997 73.413 0 101.41 27.997 28.009 73.406 28.009 101.415 0l440.304-440.297c13.999-14.005 20.99-32.342 20.99-50.687 0-18.354-7.005-36.704-21.001-50.703z" />
<glyph unicode="&#xe903;" glyph-name="bag" horiz-adv-x="1241" d="M1179.917 443.581l-423.72-109.029v53.464c0 15.835-12.837 28.672-28.672 28.672h-211.321c-15.835 0-28.672-12.837-28.672-28.672v0-54.272l-425.014 109.837c-35.741 8.812-61.874 40.472-62.14 78.279v194.051c-0.007 0.388-0.011 0.846-0.011 1.304 0 43.933 35.615 79.549 79.549 79.549 0.459 0 0.916-0.004 1.373-0.012l-0.069 0.001h301.272v110.915c2.129 26.973 22.74 48.544 49.072 52.137l0.296 0.033h382.653c26.865-3.092 47.744-24.973 49.253-52.026l0.006-0.144v-111.023h297.391c0.388 0.007 0.846 0.011 1.304 0.011 43.933 0 79.549-35.615 79.549-79.549 0-0.459-0.004-0.916-0.012-1.373l0.001 0.069v-194.021c-0.312-37.779-26.403-69.378-61.529-78.084l-0.558-0.117zM815.481 876.84c0.026 0.431 0.041 0.935 0.041 1.442 0 14.109-11.437 25.546-25.546 25.546-0.507 0-1.011-0.015-1.511-0.044l0.069 0.003h-330.321c-0.431 0.026-0.935 0.041-1.442 0.041-14.109 0-25.546-11.437-25.546-25.546 0-0.507 0.015-1.011 0.044-1.511l-0.003 0.069v-80.195h384.216v79.98zM561.098 254.141c-0.016 0-0.035 0-0.054 0-13.454 0-24.36 10.907-24.36 24.36 0 0 0 0 0 0v0 43.87c-0.014 0.436-0.021 0.948-0.021 1.463 0 18.235 9.696 34.205 24.213 43.036l0.223 0.126h121.048c14.74-8.957 24.436-24.927 24.436-43.162 0-0.514-0.008-1.027-0.023-1.538l0.002 0.075v-43.924c0 0 0 0 0 0 0-13.454-10.907-24.36-24.36-24.36-0.019 0-0.038 0-0.057 0h-121.26zM486.723 265.997v-30.666c-0.033-0.515-0.052-1.117-0.052-1.723 0-15.776 12.789-28.564 28.564-28.564 0.606 0 1.208 0.019 1.804 0.056l-0.082-0.004h207.872c0.515-0.033 1.117-0.052 1.723-0.052 15.776 0 28.564 12.789 28.564 28.564 0 0.606-0.019 1.208-0.056 1.804l0.004-0.082v30.666l432.29 120.239v-369.448c0.007-0.388 0.011-0.846 0.011-1.304 0-43.933-35.615-79.549-79.549-79.549-0.459 0-0.916 0.004-1.373 0.012l0.069-0.001h-971.291c-0.388-0.007-0.846-0.011-1.304-0.011-43.933 0-79.549 35.615-79.549 79.549 0 0.459 0.004 0.916 0.012 1.373l-0.001-0.069v369.718z" />
<glyph unicode="&#xe904;" glyph-name="bell" horiz-adv-x="850" d="M845.276 102.004l-72.863 121.392c-32.303 52.925-51.43 116.955-51.433 185.452v106.323c-0.208 133.594-88.498 246.511-209.892 283.798l-2.107 0.557v76.135c0 46.884-38.007 84.892-84.892 84.892s-84.892-38.007-84.892-84.892v0-76.089c-123.509-37.831-211.806-150.755-211.999-284.332v-106.344c-0.011-68.492-19.118-132.518-52.288-187.048l0.901 1.595-72.863-121.346c-1.955-3.149-3.114-6.97-3.114-11.061 0-11.708 9.492-21.2 21.2-21.2 0.025 0 0.051 0 0.076 0h806.513c11.507 0.228 20.748 9.61 20.748 21.15 0 4.075-1.152 7.881-3.149 11.109l0.052-0.091zM290.254 20.984c24.186-50.536 74.915-84.82 133.651-84.82s109.466 34.284 133.268 83.932l0.384 0.888h-267.303z" />
<glyph unicode="&#xe905;" glyph-name="calendar" horiz-adv-x="1027" d="M373.505 461.695c0-0.030 0-0.065 0-0.1 0-9.324-7.559-16.882-16.882-16.882-0.018 0-0.035 0-0.053 0h-63.742c-0.045 0-0.099-0.001-0.152-0.001-9.439 0-17.111 7.568-17.278 16.967v63.811c0.168 9.415 7.839 16.983 17.278 16.983 0.053 0 0.107 0 0.16-0.001h63.737c0.015 0 0.032 0 0.050 0 9.324 0 16.882-7.559 16.882-16.882 0-0.035 0-0.070 0-0.105v0.005-63.795zM506.472 525.291c0 0.030 0 0.065 0 0.1 0 9.324-7.559 16.882-16.882 16.882-0.018 0-0.035 0-0.053 0h-63.742c-0.015 0-0.032 0-0.050 0-9.324 0-16.882-7.559-16.882-16.882 0-0.035 0-0.070 0-0.105v0.005-63.795c0-0.030 0-0.065 0-0.1 0-9.324 7.559-16.882 16.882-16.882 0.018 0 0.035 0 0.053 0h63.742c0.015 0 0.032 0 0.050 0 9.324 0 16.882 7.559 16.882 16.882 0 0.035 0 0.070 0 0.105v-0.005 63.795zM639.44 525.291c0 0.030 0 0.065 0 0.1 0 9.324-7.559 16.882-16.882 16.882-0.018 0-0.035 0-0.053 0h-63.742c-0.015 0-0.032 0-0.050 0-9.324 0-16.882-7.559-16.882-16.882 0-0.035 0-0.070 0-0.105v0.005-63.795c0-0.030 0-0.065 0-0.1 0-9.324 7.559-16.882 16.882-16.882 0.018 0 0.035 0 0.053 0h63.742c0.015 0 0.032 0 0.050 0 9.324 0 16.882 7.559 16.882 16.882 0 0.035 0 0.070 0 0.105v-0.005 63.795zM373.505 395.809c0 0.044 0.001 0.097 0.001 0.149 0 9.324-7.559 16.882-16.882 16.882-0.018 0-0.035 0-0.053 0h-63.742c-0.045 0-0.098 0.001-0.151 0.001-9.457 0-17.139-7.596-17.279-17.019v-63.758c0.168-9.415 7.839-16.983 17.278-16.983 0.053 0 0.107 0 0.16 0.001h63.737c0.030 0 0.065 0 0.1 0 9.296 0 16.833 7.536 16.833 16.833 0 0.053 0 0.105-0.001 0.158v-0.008 63.745zM506.472 395.809c0 0.044 0.001 0.097 0.001 0.149 0 9.324-7.559 16.882-16.882 16.882-0.018 0-0.035 0-0.053 0h-63.742c-0.015 0-0.033 0-0.050 0-9.324 0-16.882-7.559-16.882-16.882 0-0.053 0-0.105 0.001-0.157v0.008-63.745c0-0.044-0.001-0.097-0.001-0.15 0-9.296 7.536-16.833 16.833-16.833 0.035 0 0.070 0 0.106 0h63.74c0.030 0 0.065 0 0.1 0 9.296 0 16.833 7.536 16.833 16.833 0 0.053 0 0.105-0.001 0.158v-0.008 63.745zM622.508 412.841h-63.745c-0.015 0-0.033 0-0.050 0-9.324 0-16.882-7.559-16.882-16.882 0-0.053 0-0.105 0.001-0.157v0.008-63.745c0-0.044-0.001-0.097-0.001-0.15 0-9.296 7.536-16.833 16.833-16.833 0.035 0 0.070 0 0.106 0h63.74c0.030 0 0.065 0 0.1 0 9.296 0 16.833 7.536 16.833 16.833 0 0.053 0 0.105-0.001 0.158v-0.008 63.745c-0.028 9.302-7.576 16.833-16.882 16.833-0.018 0-0.035 0-0.053 0h0.003zM223.107 283.359h-63.745c-0.030 0-0.065 0-0.1 0-9.296 0-16.833-7.536-16.833-16.833 0-0.053 0-0.105 0.001-0.158v0.008-63.745c0-0.044-0.001-0.097-0.001-0.15 0-9.296 7.536-16.833 16.833-16.833 0.035 0 0.070 0 0.106 0h63.74c0.030 0 0.065 0 0.1 0 9.296 0 16.833 7.536 16.833 16.833 0 0.053 0 0.105-0.001 0.158v-0.008 63.745c-0.14 9.189-7.622 16.584-16.831 16.584-0.036 0-0.071 0-0.107 0h0.005zM240.039 396.008c0 0.044 0.001 0.097 0.001 0.149 0 9.324-7.559 16.882-16.882 16.882-0.018 0-0.035 0-0.053 0h-63.742c-0.015 0-0.033 0-0.050 0-9.324 0-16.882-7.559-16.882-16.882 0-0.053 0-0.105 0.001-0.157v0.008-63.745c0-0.044-0.001-0.097-0.001-0.15 0-9.296 7.536-16.833 16.833-16.833 0.035 0 0.070 0 0.106 0h63.74c0.030 0 0.065 0 0.1 0 9.296 0 16.833 7.536 16.833 16.833 0 0.053 0 0.105-0.001 0.158v-0.008 63.745zM489.54 283.359h-63.745c-0.030 0-0.065 0-0.1 0-9.296 0-16.833-7.536-16.833-16.833 0-0.053 0-0.105 0.001-0.158v0.008-63.745c0-0.044-0.001-0.097-0.001-0.15 0-9.296 7.536-16.833 16.833-16.833 0.035 0 0.070 0 0.106 0h63.74c0.030 0 0.065 0 0.1 0 9.296 0 16.833 7.536 16.833 16.833 0 0.053 0 0.105-0.001 0.158v-0.008 63.745c-0.14 9.189-7.622 16.584-16.831 16.584-0.036 0-0.071 0-0.107 0h0.005zM356.572 283.359h-63.745c-0.045 0-0.099 0.001-0.152 0.001-9.439 0-17.111-7.568-17.278-16.967v-63.761c0.168-9.415 7.839-16.983 17.278-16.983 0.053 0 0.107 0 0.16 0.001h63.737c0.030 0 0.065 0 0.1 0 9.296 0 16.833 7.536 16.833 16.833 0 0.053 0 0.105-0.001 0.158v-0.008 63.745c-0.14 9.189-7.622 16.584-16.831 16.584-0.036 0-0.071 0-0.107 0h0.005zM755.973 444.912c0.015 0 0.032 0 0.050 0 9.324 0 16.882 7.559 16.882 16.882 0 0.035 0 0.070 0 0.105v-0.005 63.795c0 0.030 0 0.065 0 0.1 0 9.324-7.559 16.882-16.882 16.882-0.018 0-0.035 0-0.053 0h-63.742c-0.015 0-0.032 0-0.050 0-9.324 0-16.882-7.559-16.882-16.882 0-0.035 0-0.070 0-0.105v0.005-63.795c0-0.030 0-0.065 0-0.1 0-9.324 7.559-16.882 16.882-16.882 0.018 0 0.035 0 0.053 0h63.742zM100.597 47.205h483.564c-7.364 22.977-11.875 49.452-12.445 76.895l-0.005 0.296h-471.114c-12.543 0.055-22.713 10.137-22.908 22.641v455.345h758.463v-212.101c27.59-0.083 54.13-4.448 79.032-12.464l-1.841 0.512v383.465c-0.057 55.251-44.845 100.021-100.097 100.049h-111.556v61.703c-0.085 20.179-16.462 36.504-36.653 36.504-0.070 0-0.14 0-0.21-0.001h-56.762c-20.085-0.113-36.326-16.407-36.354-36.501v-61.905h-229.581v61.902c0.001 0.074 0.001 0.162 0.001 0.249 0 20.023-16.232 36.255-36.255 36.255-0.035 0-0.071 0-0.106 0h-56.768c-20.085-0.113-36.326-16.407-36.354-36.501v-61.905h-112.051c-55.254-0.028-100.043-44.799-100.099-100.044v-615.242c0.311-55.047 45.007-99.551 100.098-99.551 0.001 0 0.001 0 0.002 0v0zM1026.39 127.334c-0.057-105.435-85.542-190.886-190.985-190.886-105.478 0-190.985 85.507-190.985 190.985 0 105.391 85.365 190.843 190.723 190.985h0.014c105.616 0 191.234-85.619 191.234-191.234 0-0.088 0-0.175 0-0.263v0.014zM931.769 176.836c0 0.012 0 0.027 0 0.041 0 6.342-2.676 12.059-6.96 16.083l-0.012 0.011c-4.128 4.174-9.855 6.759-16.185 6.759s-12.058-2.585-16.183-6.757l-0.002-0.002-83.167-83.067-31.872 31.872c-4.128 4.174-9.855 6.759-16.185 6.759s-12.058-2.585-16.183-6.757l-0.002-0.002c-4.008-4.193-6.474-9.889-6.474-16.16s2.467-11.967 6.483-16.169l-0.008 0.009 48.307-48.008c4.128-4.174 9.855-6.759 16.185-6.759s12.058 2.585 16.183 6.757l0.002 0.002 99.103 99.203c4.219 3.969 6.876 9.559 6.972 15.769v0.018z" />
<glyph unicode="&#xe906;" glyph-name="car" horiz-adv-x="2286" d="M1865.617 353.839c0.022 0 0.048 0 0.073 0 115.262 0 208.7-93.438 208.7-208.7 0-0.026 0-0.052 0-0.078v0.004c-0.055-9.307-0.719-18.405-1.955-27.321l0.122 1.078c-13.323-103.539-100.92-182.731-207.013-182.731-109.073 0-198.596 83.703-207.84 190.38l-0.055 0.781c-0.44 5.938-0.88 11.802-0.88 17.886 0 115.262 93.438 208.7 208.7 208.7 0.052 0 0.103 0 0.155 0h-0.008zM1970.15 223.723l-42.59-42.59c3.101-5.298 5.618-11.43 7.229-17.918l0.101-0.481h60.037c-3.114 23.236-11.942 43.968-25.016 61.321l0.239-0.331zM1995.367 126.667h-60.477c-1.696-6.859-4.213-12.893-7.5-18.415l0.17 0.308 42.737-42.737c12.871 16.957 21.784 37.594 24.989 60.072l0.082 0.698zM1883.65 15.316c23.108 3.303 43.673 12.243 60.865 25.374l-0.315-0.231-42.444 42.444c-5.211-3.060-11.239-5.572-17.613-7.222l-0.494-0.109v-60.257zM1883.65 214.486c6.963-1.658 13.1-4.18 18.709-7.5l-0.309 0.169 42.59 42.59c-16.995 12.985-37.718 21.958-60.301 25.138l-0.689 0.079v-60.11zM1847.437 274.597c-23.285-3.236-44.016-12.241-61.296-25.516l0.306 0.226 42.59-42.517c5.299 3.151 11.436 5.672 17.945 7.238l0.454 0.092v60.11zM1847.437 15.389v59.89c-6.871 1.777-12.896 4.287-18.452 7.516l0.346-0.186-42.444-42.517c16.916-12.719 37.482-21.508 59.864-24.626l0.687-0.078zM1760.937 65.677l42.81 42.884c-3.174 5.208-5.825 11.221-7.643 17.586l-0.127 0.521h-59.964c3.249-23.236 12.112-43.948 25.168-61.33l-0.244 0.34zM1795.977 162.806c1.762 6.978 4.275 13.104 7.519 18.757l-0.189-0.357-42.59 42.59c-12.901-16.987-21.801-37.688-24.92-60.236l-0.077-0.681h60.037zM401.053 353.839c0.022 0 0.048 0 0.073 0 115.262 0 208.7-93.438 208.7-208.7 0-0.026 0-0.052 0-0.078v0.004c-0.055-9.307-0.719-18.405-1.955-27.321l0.122 1.078c-13.483-103.375-101-182.383-206.969-182.383-108.951 0-198.395 83.515-207.808 190.020l-0.057 0.793c-0.513 5.938-0.953 11.802-0.953 17.886 0.042 115.271 93.497 208.7 208.773 208.7 0.026 0 0.052 0 0.077 0h-0.004zM505.659 223.723l-42.664-42.59c3.101-5.298 5.618-11.43 7.229-17.918l0.101-0.481h60.11c-3.148 23.232-11.972 43.957-25.019 61.327l0.242-0.337zM530.803 126.667h-60.403c-1.772-6.87-4.283-12.896-7.515-18.45l0.185 0.344 42.664-42.664c12.883 16.927 21.799 37.544 24.99 60.003l0.081 0.693zM419.086 15.316c23.108 3.303 43.673 12.243 60.865 25.374l-0.315-0.231-42.444 42.444c-5.211-3.060-11.239-5.572-17.613-7.222l-0.494-0.109v-60.257zM419.086 214.486c6.96-1.626 13.101-4.151 18.695-7.494l-0.296 0.164 42.59 42.59c-16.99 12.996-37.716 21.972-60.305 25.138l-0.685 0.079v-60.11zM382.946 274.597c-23.287-3.222-44.021-12.229-61.294-25.515l0.304 0.224 42.59-42.517c5.299 3.161 11.437 5.684 17.951 7.24l0.449 0.091v60.11zM382.946 15.389v59.89c-6.868 1.761-12.895 4.272-18.444 7.513l0.338-0.182-42.517-42.517c16.941-12.719 37.531-21.507 59.936-24.625l0.688-0.078zM296.446 65.677l42.81 42.884c-3.21 5.21-5.864 11.227-7.651 17.606l-0.12 0.5h-60.037c3.211-23.251 12.108-43.973 25.235-61.317l-0.238 0.327zM331.413 162.806c1.762 6.978 4.275 13.104 7.519 18.757l-0.189-0.357-42.59 42.59c-12.925-16.984-21.848-37.683-24.992-60.232l-0.078-0.684h60.11zM15.101 420.254l34.747 38.339v120.954c-0.004 0.399-0.006 0.87-0.006 1.341 0 31.941 10.724 61.377 28.767 84.905l-0.245-0.333 128.431 164.277c-0.017 0.57-0.026 1.24-0.026 1.913 0 31.992 21.505 58.962 50.848 67.242l0.492 0.119c152.695 33.134 626.466 118.754 1001.495 2.419 179.178-61.52 333.527-134.698 477.936-222.587l-10.689 6.043s409.043-60.184 507.125-207.747c30.838-51.496 50.331-112.992 53.551-178.765l0.035-0.906c0.923-6.608 1.45-14.242 1.45-21.999 0-73.774-47.672-136.413-113.892-158.792l-1.181-0.347-70.886-9.823c0 2.346 0.953 4.692 1.246 7.331 1.299 9.398 2.070 20.305 2.126 31.381v0.066c0.57 6.081 0.895 13.149 0.895 20.293 0 127.326-103.218 230.545-230.545 230.545-1.861 0-3.717-0.022-5.568-0.066l0.275 0.005c-6.894 0.752-14.89 1.182-22.987 1.182-123.804 0-224.167-100.363-224.167-224.167 0-2.529 0.042-5.049 0.125-7.558l-0.010 0.365c0-7.331 0.513-14.221 1.1-21.332 0.803-9.605 2.023-18.204 3.693-26.642l-0.247 1.498h-986.688c1.026 5.791 2.053 11.656 2.639 17.593 1.164 9.411 1.855 20.356 1.906 31.453v0.068c0 138.254-72.792 232.377-246.965 232.377-5.576 0.46-12.069 0.723-18.623 0.723-132.711 0-240.294-107.583-240.294-240.294 0-5.542 0.188-11.039 0.557-16.487l-0.040 0.737c0-7.331 0.44-14.221 0.953-21.332 0.733-9.75 2.126-19.353 3.739-28.736h26.536l-62.383 39.438c-65.745 45.147-108.525 119.603-109.37 204.098l-0.001 0.13-1.246 37.459c-0.026 0.683-0.042 1.484-0.042 2.289 0 15.846 5.846 30.327 15.5 41.403l-0.064-0.075zM1510.966 667.879l-16.787 77.41c-170.939 88.214-373.079 139.933-587.298 139.933-32.201 0-64.129-1.169-95.743-3.466l4.236 0.247v-228.712l680.565-62.016c-0.285 3.411-0.448 7.382-0.448 11.39 0 23.78 5.719 46.225 15.856 66.033l-0.381-0.82zM420.552 689.284l319.977-29.322v217.057c-126.768-11.055-243.253-33.075-355.344-65.453l13.009 3.217c-13.049-4.236-22.953-14.746-26.259-27.878l-0.058-0.272c-1.195-3.953-1.883-8.496-1.883-13.199 0-10.283 3.288-19.798 8.869-27.552l-0.096 0.14z" />
<glyph unicode="&#xe907;" glyph-name="cash" d="M648.377 706.923h100.814l-1.735 61.407h-85.222l80.096 165.532-90.615 7.582-79.589-61.006 26.538 68.989-92.885 10.573-30.463-86.21-50.060 66.747-137.712 4.779 91.122-177.012-82.259 2.643v-63.997h79.268c-169.056-98.945-290.855-357.575-290.855-497.289 0-175.143 191.269-273.661 427.178-273.661s427.178 98.518 427.178 273.661c0.027 139.714-121.746 398.317-290.802 497.262zM547.723 125.641v-60.633h-58.283v56.468c-39.834 1.735-78.494 12.522-101.081 25.551l17.835 69.523c24.963-13.696 60.072-26.138 98.705-26.138 33.881 0 57.082 13.082 57.082 36.817 0 22.667-19.009 36.951-63.009 51.769-63.65 21.386-107.035 51.155-107.035 108.77 0 52.329 36.871 93.392 100.494 105.833v56.494h58.283v-52.329c39.808-1.816 66.613-10.065 86.21-19.597l-17.247-67.2c-15.459 6.514-42.825 20.238-85.623 20.238-38.66 0-51.155-16.633-51.155-33.267 0-19.65 20.825-32.118 71.365-51.155 70.725-25.043 99.292-57.669 99.292-111.227 0.027-52.837-37.458-98.037-105.833-109.918z" />
<glyph unicode="&#xe908;" glyph-name="chair" horiz-adv-x="904" d="M396.502 276.036c-12.955 4.369-22.118 16.409-22.118 30.589 0 0.134 0.001 0.268 0.002 0.402v-0.020 11.037h154.853v-11.208c0.001-0.113 0.002-0.247 0.002-0.382 0-14.18-9.163-26.22-21.891-30.522l-0.227-0.067c-3.276-1.317-7.069-2.125-11.038-2.224l-0.041-0.001h-88.463c-4.030 0.159-7.815 1.025-11.295 2.475l0.216-0.080zM684.050 450.781h-475.554c-0.18 0.004-0.392 0.006-0.604 0.006-18.002 0-32.596-14.594-32.596-32.596 0-0.213 0.002-0.425 0.006-0.636v0.032-44.232c-0.004-0.18-0.006-0.392-0.006-0.604 0-18.002 14.594-32.596 32.596-32.596 0.213 0 0.425 0.002 0.636 0.006h486.601c0.18-0.004 0.392-0.006 0.604-0.006 18.002 0 32.596 14.594 32.596 32.596 0 0.213-0.002 0.425-0.006 0.636v-0.032 33.195c-0.097 24.404-19.867 44.159-44.267 44.232h-0.007zM264.834 512.722c6.596-20.959 24.359-36.505 46.14-39.786l0.316-0.039h285.367c22.445 1.866 40.606 18.155 45.282 39.491l0.061 0.334 76.314 286.607c1.29 6.727 2.027 14.465 2.027 22.375 0 29.765-10.447 57.090-27.873 78.508l0.18-0.228c-35.881 35.548-85.274 57.513-139.796 57.513-1.007 0-2.013-0.007-3.017-0.022l0.152 0.002c-7.493 1.474-16.108 2.318-24.921 2.318-1.766 0-3.525-0.034-5.275-0.101l0.252 0.008h-154.853c-1.694 0.035-3.692 0.054-5.694 0.054-9.29 0-18.482-0.424-27.556-1.252l1.167 0.086h-1.069c-49.94-0.913-94.464-23.347-124.815-58.393l-0.18-0.212c-15.090-19.824-24.176-44.93-24.176-72.159 0-9.714 1.156-19.158 3.339-28.201l-0.167 0.818zM125.508 582.406c-1.545 3.789-3.412 7.059-5.644 10.040l0.083-0.116c-16.555 22.116-63.011 13.304-87.351 13.304-17.709-0.024-32.059-14.374-32.083-32.081v-0.002c-0.025-0.474-0.039-1.029-0.039-1.587 0-17.844 14.319-32.344 32.094-32.635h56.45v-154.811h44.232s0 157.035-1.112 171.408c-0.557 9.708-2.927 18.733-6.776 26.925l0.188-0.446zM870.943 605.634c-25.666 0-70.796 8.812-87.394-13.304-2.116-2.866-3.968-6.134-5.406-9.618l-0.112-0.306c-3.38-8.183-5.396-17.678-5.518-27.628v-0.049c-2.224-13.261-2.224-170.296-2.224-170.296h44.232v154.811h56.509c17.806 0.316 32.119 14.825 32.119 32.677 0 0.543-0.013 1.084-0.039 1.62l0.003-0.076c0 0 0 0 0 0 0 17.736-14.354 32.12-32.078 32.168h-0.005zM675.195 32.719c7.128-0.025 13.964-1.244 20.328-3.469l-0.436 0.133c-19.891 50.905-71.908 91.8-188.006 101.767-7.743 1.112-14.373 1.112-22.116 2.224v118.322h-66.39v-118.322c-7.743 0-15.485-1.112-22.116-1.112-134.919-9.967-188.006-60.829-209.009-100.655 3.046 0.735 6.543 1.157 10.139 1.157 0.707 0 1.41-0.016 2.108-0.049l-0.099 0.004c11.987-0.072 23.091-3.788 32.279-10.094l-0.196 0.127c17.667 26.565 60.829 57.535 164.778 65.235 6.63 0 14.373 1.155 22.116 1.155v-66.39c9.175 6.244 20.501 9.969 32.697 9.969 0.175 0 0.35-0.001 0.525-0.002h-0.027c0.294 0.006 0.641 0.009 0.988 0.009 12.198 0 23.422-4.175 32.319-11.174l-0.112 0.085v66.39c7.743 0 15.443-1.112 22.116-1.112 87.351-7.743 124.952-33.195 141.55-60.829 7.725 4.085 16.87 6.525 26.574 6.63h0.033zM479.404-2.7c-6.653 7.984-16.526 13.089-27.598 13.303l-0.036 0.001c-8.369-0.238-16.023-3.11-22.211-7.812l0.095 0.069c-8.65-6.279-14.245-16.311-14.373-27.657v-2.031c0-20.152 16.337-36.489 36.489-36.489s36.489 16.337 36.489 36.489v0 2.182c0.002 0.122 0.003 0.265 0.003 0.409 0 8.391-3.365 15.996-8.819 21.54l0.004-0.004zM703.941-2.7c-6.665 7.99-16.554 13.096-27.642 13.303l-0.035 0.001c-8.369-0.238-16.023-3.11-22.211-7.812l0.095 0.069c-8.65-6.279-14.245-16.311-14.373-27.657v-2.031c0.693-19.631 16.774-35.282 36.51-35.282s35.817 15.651 36.509 35.219l0.002 0.063v2.182c-0.915 8.347-4.003 15.835-8.681 22.060l0.083-0.115zM228.345-2.7c-6.653 7.984-16.526 13.089-27.598 13.303l-0.036 0.001c-8.369-0.238-16.023-3.11-22.211-7.812l0.095 0.069c-8.65-6.279-14.245-16.311-14.373-27.657v-2.031c0-20.152 16.337-36.489 36.489-36.489s36.489 16.337 36.489 36.489v0 2.182c-0.962 8.369-4.125 15.857-8.889 22.049l0.077-0.104z" />
<glyph unicode="&#xe909;" glyph-name="chart" horiz-adv-x="979" d="M165.982 308.889h87.489c14.501 0.158 26.196 11.95 26.196 26.474 0 0.017 0 0.034 0 0.051v-0.003 86.464c0.001 0.097 0.002 0.213 0.002 0.328 0 14.55-11.716 26.363-26.229 26.52h-87.457c-14.527-0.157-26.243-11.971-26.243-26.52 0-0.082 0-0.165 0.001-0.247v0.013-86.464c0-0.042 0-0.091 0-0.141 0-14.54 11.721-26.342 26.23-26.474h0.012zM851.166 822.637h-58.497v95.133c-0.027 23.518-19.084 42.576-42.6 42.603h-7.414c-23.518-0.027-42.576-19.084-42.603-42.6v-95.136h-417.869v93.735c-0.027 23.518-19.084 42.576-42.6 42.603h-13.24c-23.538 0-42.623-19.068-42.649-42.6v-93.738h-55.374c-0.694 0.014-1.512 0.022-2.332 0.022-69.119 0-125.191-55.866-125.522-124.908v-635.155c0.159-70.235 57.131-127.109 127.388-127.109 0.164 0 0.328 0 0.492 0.001h722.448c0.194-0.001 0.424-0.002 0.653-0.002 70.191 0 127.123 56.769 127.387 126.899v635.148c-0.332 69.073-56.403 124.94-125.522 124.94-0.82 0-1.638-0.008-2.454-0.024l0.122 0.002zM931.803 68.143c0.118-1.631 0.186-3.535 0.186-5.454 0-44.186-35.766-80.018-79.927-80.124h-725.419c-44.321 4.089-78.876 40.664-79.75 85.491l-0.001 0.087v473.802h884.679v-474.035zM399.038 308.889h87.442c14.521 0.132 26.242 11.934 26.242 26.474 0 0.017 0 0.033 0 0.050v-0.003 86.464c0.001 0.097 0.002 0.213 0.002 0.328 0 14.55-11.716 26.363-26.229 26.52h-87.457c-14.527-0.157-26.243-11.971-26.243-26.52 0-0.082 0-0.165 0.001-0.247v0.013-86.464c0-0.042 0-0.091 0-0.141 0-14.54 11.721-26.342 26.23-26.474h0.012zM632.094 308.889h87.442c14.521 0.132 26.242 11.934 26.242 26.474 0 0.017 0 0.033 0 0.050v-0.003 86.464c0.001 0.097 0.002 0.213 0.002 0.328 0 14.55-11.716 26.363-26.229 26.52h-87.457c-14.527-0.157-26.243-11.971-26.243-26.52 0-0.082 0-0.165 0.001-0.247v0.013-86.464c0-0.028 0-0.061 0-0.095 0-14.549 11.715-26.362 26.227-26.52h0.015zM165.982 75.833h87.489c14.501 0.158 26.196 11.95 26.196 26.474 0 0.017 0 0.034 0 0.051v-0.003 86.464c0.002 0.111 0.003 0.242 0.003 0.374 0 14.541-11.722 26.344-26.232 26.474h-87.454c-14.522-0.131-26.243-11.934-26.243-26.474 0-0.082 0-0.164 0.001-0.247v0.013-86.464c0-0.056-0.001-0.122-0.001-0.187 0-14.54 11.721-26.343 26.23-26.474h0.012zM399.038 75.833h87.442c14.521 0.132 26.242 11.934 26.242 26.474 0 0.017 0 0.033 0 0.050v-0.003 86.464c0.002 0.111 0.003 0.242 0.003 0.374 0 14.541-11.722 26.344-26.232 26.474h-87.454c-14.522-0.131-26.243-11.934-26.243-26.474 0-0.082 0-0.164 0.001-0.247v0.013-86.464c0-0.056-0.001-0.122-0.001-0.187 0-14.54 11.721-26.343 26.23-26.474h0.012zM632.094 75.833h87.442c14.521 0.132 26.242 11.934 26.242 26.474 0 0.017 0 0.033 0 0.050v-0.003 86.464c0.002 0.111 0.003 0.242 0.003 0.374 0 14.541-11.722 26.344-26.232 26.474h-87.454c-14.522-0.131-26.243-11.934-26.243-26.474 0-0.082 0-0.164 0.001-0.247v0.013-86.464c0-0.042 0-0.092 0-0.141 0-14.549 11.715-26.362 26.228-26.52h0.015z" />
<glyph unicode="&#xe90a;" glyph-name="chat" horiz-adv-x="1604" d="M1603.783 582.867c-3.811 113.499-63.359 212.311-152.011 270.343l-1.282 0.787c-98.761 66.16-220.279 105.588-351.007 105.588s-252.247-39.428-353.314-107.041l2.307 1.453c-25.5-18.387-47.839-38.381-67.905-60.477l-0.317-0.355c-52.36 14.899-112.495 23.465-174.631 23.465-0.384 0-0.768 0-1.152-0.001h0.059c-3.026 0.055-6.595 0.086-10.171 0.086-127.383 0-245.534-39.526-342.857-106.983l1.995 1.308c-92.489-56.311-153.312-156.589-153.312-271.074 0-114.315 60.643-214.465 151.513-270.037l1.386-0.788-45.843-176.033c-0.929-3.443-1.463-7.397-1.463-11.475 0-25.261 20.478-45.74 45.74-45.74 8.291 0 16.066 2.206 22.772 6.063l-0.222-0.118 227.406 129.208c30.934-4.967 66.597-7.804 102.923-7.804 0.047 0 0.094 0 0.141 0h-0.007c3.035-0.055 6.615-0.086 10.202-0.086 127.372 0 245.513 39.527 342.824 106.983l-1.994-1.308c25.445 18.362 47.734 38.338 67.745 60.419l0.322 0.361c52.387-14.899 112.554-23.465 174.72-23.465 0.353 0 0.705 0 1.058 0.001h-0.055c0.078 0 0.171 0 0.264 0 36.282 0 71.897 2.856 106.632 8.357l-3.839-0.501 227.406-129.208c6.487-3.751 14.27-5.964 22.57-5.964 25.233 0 45.688 20.455 45.688 45.688 0 4.104-0.541 8.081-1.556 11.865l0.073-0.319-45.843 176.033c89.562 58.97 148.901 157.521 153.017 270.167l0.017 0.601zM1374.412 370.966c-13.038-8.209-21.575-22.525-21.575-38.835 0-4.089 0.536-8.052 1.543-11.824l-0.073 0.32 26.772-102.746-147.504 83.83c-6.474 3.738-14.239 5.944-22.52 5.944-0.005 0-0.010 0-0.014 0h0.001c-0.084 0.001-0.183 0.001-0.283 0.001-2.769 0-5.477-0.264-8.099-0.767l0.268 0.043c-31.048-5.819-66.769-9.148-103.266-9.148-0.035 0-0.071 0-0.106 0h0.006c-227.716 0-412.949 127.968-412.949 285.291s185.233 285.291 412.949 285.343 412.897-128.019 412.897-285.343c-6.205-92.27-59.908-170.719-136.652-211.636l-1.394-0.679zM873.964 624.834c-29.343 0-53.13-23.787-53.13-53.13s23.787-53.13 53.13-53.13c29.343 0 53.13 23.787 53.13 53.13v0c-0.147 29.242-23.872 52.895-53.128 52.924h-0.003zM1024.31 624.834c-29.343 0-53.13-23.787-53.13-53.13s23.787-53.13 53.13-53.13c29.343 0 53.13 23.787 53.13 53.13v0c-0.147 29.242-23.872 52.895-53.128 52.924h-0.003zM1174.657 624.834c-29.343 0-53.13-23.787-53.13-53.13s23.787-53.13 53.13-53.13c29.343 0 53.13 23.787 53.13 53.13v0c-0.146 29.188-23.783 52.807-52.964 52.924h-0.011zM1325.003 624.834c-29.343 0-53.13-23.787-53.13-53.13s23.787-53.13 53.13-53.13c29.343 0 53.13 23.787 53.13 53.13v0c-0.147 29.242-23.872 52.895-53.128 52.924h-0.003z" />
<glyph unicode="&#xe90b;" glyph-name="clock" d="M512.271 960h-0.013c0.085 0 0.169 0 0.254 0 282.786 0 512.030-229.244 512.030-512.030 0-0.042 0-0.085 0-0.12v0.003c0-0.021 0-0.042 0-0.063 0-282.886-229.324-512.21-512.21-512.21s-512.21 229.324-512.21 512.21c0 282.865 229.29 512.176 512.15 512.21zM512.271 874.501c-0.178 0-0.39 0-0.601 0-235.766 0-426.892-191.126-426.892-426.892s191.126-426.892 426.892-426.892c235.766 0 426.892 191.126 426.892 426.891v0c0 0.018 0 0.039 0 0.061 0 235.555-190.784 426.549-426.258 426.892h-0.033zM749.166 250.698l-196.010 197.032 10.221 12.446-22.848 173.222c0.191 1.274 0.301 2.745 0.301 4.241 0 16.603-13.46 30.063-30.063 30.063s-30.063-13.46-30.063-30.063c0-1.496 0.109-2.967 0.32-4.404l-0.020 0.163-18.639-177.912s21.645-22.848 27.658-28.439l216.452-218.076c5.047-3.969 11.493-6.366 18.499-6.366 16.603 0 30.063 13.46 30.063 30.063 0 6.719-2.204 12.924-5.93 17.93l0.057-0.080zM512.872 960v0c0 0 0 0-0.001 0-16.54 0-29.96-13.357-30.062-29.882l-3.006-85.739c0-18.264 14.806-33.069 33.069-33.069s33.069 14.806 33.069 33.069l-3.006 85.739c0 16.603-13.46 30.063-30.063 30.063zM512.872 86.615h-0.003c-18.163-0.033-32.896-14.682-33.066-32.829l3.006-85.739c0-16.603 13.46-30.063 30.063-30.063s30.063 13.46 30.063 30.063l3.006 85.739v0.010c-0.102 18.188-14.861 32.905-33.069 32.939zM908.499 481.881l0.112-0.007c-0.841 0.064-1.691 0.097-2.548 0.097-18.197 0-32.949-14.752-32.949-32.949s14.752-32.949 32.949-32.949c0.857 0 1.707 0.033 2.436 0.090l85.378 2.886c16.603 0 30.063 13.46 30.063 30.063s-13.46 30.063-30.063 30.063l-85.378 2.826zM31.867 478.995v0c-16.636 0-30.123-13.487-30.123-30.123s13.487-30.123 30.123-30.123l85.98-2.886c18.264 0 33.069 14.806 33.069 33.069s-14.806 33.069-33.069 33.069l-85.98-2.826zM511.068 514.83c0.036 0 0.078 0 0.12 0 34.269 0 62.050-27.781 62.050-62.050s-27.781-62.050-62.050-62.050c-34.269 0-62.050 27.781-62.050 62.050 0 0.021 0 0.042 0 0.063v-0.003c0.034 34.177 27.748 61.869 61.929 61.869v0z" />
<glyph unicode="&#xe90c;" glyph-name="date" horiz-adv-x="965" d="M852.526 904.78v-144.12c1.14-4.728 1.794-10.156 1.794-15.737 0-38.617-31.306-69.923-69.923-69.923-4.116 0-8.149 0.356-12.071 1.038l0.418-0.060h-64.965c-3.64-0.658-7.829-1.034-12.106-1.034-39.436 0-71.405 31.969-71.405 71.405 0 5.066 0.528 10.009 1.531 14.777l-0.082-0.465v144.12h-284.365v-139.276c0.799-4.117 1.257-8.851 1.257-13.692 0-41.544-33.678-75.223-75.223-75.223-3.457 0-6.86 0.233-10.193 0.685l0.388-0.043h-65.535c-58.697 0-79.782 29.519-79.782 88.273v139.276c-56.552-0.483-103.365-41.571-112.735-95.505l-0.099-0.689v-775.707c0 0 0-0.001 0-0.002 0-53.304 43.050-96.553 96.277-96.876h773.345c53.259 0.323 96.308 43.572 96.308 96.876 0 0.001 0 0.001 0 0.002v0 775.48c-9.37 54.721-56.217 95.919-112.781 96.422h-0.053zM910.083 34.189c0-0.068 0.001-0.148 0.001-0.228 0-22.881-18.549-41.43-41.43-41.43-0.060 0-0.121 0-0.181 0h-772.165c-0.051 0-0.111 0-0.172 0-22.881 0-41.43 18.549-41.43 41.43 0 0.080 0 0.16 0.001 0.241v-0.012 544.568c-0.001 0.085-0.001 0.185-0.001 0.286 0 22.849 18.523 41.373 41.373 41.373 0.080 0 0.161 0 0.241-0.001h772.162c0.068 0 0.148 0.001 0.229 0.001 22.849 0 41.373-18.523 41.373-41.373 0-0.1 0-0.201-0.001-0.301v0.015-544.568zM712.908 732.508h54.138c16.086 0.161 29.064 13.238 29.064 29.347 0 0.061 0 0.121-0.001 0.182v-0.009 168.91c0.001 0.068 0.001 0.149 0.001 0.229 0 16.109-12.978 29.186-29.049 29.347h-54.153c-16.294-0.128-29.473-13.286-29.633-29.561v-168.925c0.064-16.363 13.279-29.619 29.621-29.747h0.012zM200.025 732.508h54.138c16.086 0.161 29.064 13.238 29.064 29.347 0 0.061 0 0.121-0.001 0.182v-0.009 168.91c0.001 0.068 0.001 0.149 0.001 0.229 0 16.109-12.978 29.186-29.049 29.347h-54.153c-16.294-0.128-29.473-13.286-29.633-29.561v-168.925c0.064-16.363 13.279-29.619 29.621-29.747h0.012zM568.731 484.101c-0.224 11.441-9.551 20.629-21.024 20.629-0.021 0-0.043 0-0.064 0h-128.788c0 0 0 0 0 0-11.33 0-20.515-9.185-20.515-20.515 0-0.040 0-0.080 0-0.12v0.006-128.962c0-0.034 0-0.074 0-0.114 0-11.33 9.185-20.515 20.515-20.515 0 0 0 0 0 0h128.791c0.018 0 0.039 0 0.061 0 11.473 0 20.801 9.189 21.024 20.608v128.983zM796.679 484.101c-0.224 11.441-9.551 20.629-21.024 20.629-0.021 0-0.043 0-0.064 0h-128.788c0 0 0 0 0 0-11.33 0-20.515-9.185-20.515-20.515 0-0.040 0-0.080 0-0.12v0.006-128.962c0-0.034 0-0.074 0-0.114 0-11.33 9.185-20.515 20.515-20.515 0 0 0 0 0 0h128.791c0.018 0 0.039 0 0.061 0 11.473 0 20.801 9.189 21.024 20.608v128.983zM340.782 256.153c-0.255 11.416-9.57 20.572-21.023 20.572-0.022 0-0.044 0-0.065 0h-128.788c0 0 0 0 0 0-11.33 0-20.515-9.185-20.515-20.515 0-0.020 0-0.040 0-0.060v0.003-129.019c0-0.034 0-0.074 0-0.114 0-11.33 9.185-20.515 20.515-20.515 0 0 0 0 0 0h128.791c0.018 0 0.039 0 0.061 0 11.473 0 20.801 9.189 21.024 20.608v129.040zM568.731 256.153c-0.255 11.416-9.57 20.572-21.023 20.572-0.022 0-0.044 0-0.065 0h-128.788c0 0 0 0 0 0-11.33 0-20.515-9.185-20.515-20.515 0-0.020 0-0.040 0-0.060v0.003-129.019c0-0.034 0-0.074 0-0.114 0-11.33 9.185-20.515 20.515-20.515 0 0 0 0 0 0h128.791c0.018 0 0.039 0 0.061 0 11.473 0 20.801 9.189 21.024 20.608v129.040zM796.679 256.153c-0.255 11.416-9.57 20.572-21.023 20.572-0.022 0-0.044 0-0.065 0h-128.788c0 0 0 0 0 0-11.33 0-20.515-9.185-20.515-20.515 0-0.020 0-0.040 0-0.060v0.003-129.019c0-0.034 0-0.074 0-0.114 0-11.33 9.185-20.515 20.515-20.515 0 0 0 0 0 0h128.791c0.018 0 0.039 0 0.061 0 11.473 0 20.801 9.189 21.024 20.608v129.040z" />
<glyph unicode="&#xe90d;" glyph-name="folder" horiz-adv-x="1237" d="M1185.186 582.313h-51.368l-1.676 163.079h-53.044v107.602h-561.691l-73.591 106.412h-387.15c-31.075-0.031-56.257-25.213-56.288-56.285v-913.806c-0.003-0.193-0.004-0.421-0.004-0.649 0-29.027 23.531-52.557 52.557-52.557 0.077 0 0.155 0 0.232 0.001h922.442c0.104-0.001 0.227-0.001 0.35-0.001 23.567 0 43.496 15.575 50.055 36.994l0.098 0.371 210.878 544.172v3.623c0.203 1.778 0.319 3.838 0.319 5.926 0 29.404-22.987 53.438-51.971 55.113l-0.148 0.007zM1079.099 582.313h-151.399v20.655c0 11.393-9.236 20.628-20.628 20.628s-20.628-9.236-20.628-20.628v0-20.655h-103.006v20.655c0 11.378-9.223 20.601-20.601 20.601s-20.601-9.223-20.601-20.601v0-20.655h-103.114v20.655c0 11.378-9.223 20.601-20.601 20.601s-20.601-9.223-20.601-20.601v0-20.655h-103.060v20.655c0 11.378-9.223 20.601-20.601 20.601s-20.601-9.223-20.601-20.601v0-20.655h-103.060v20.655c0 11.378-9.223 20.601-20.601 20.601s-20.601-9.223-20.601-20.601v0-20.655l-46.772 1.73c-3.080-0.006-6.091-0.281-9.017-0.803l0.312 0.046c-10.274-1.676-94.57 0.324-94.57 0.324l1.676 108.521h918.129v-109.819zM1026.055 801.626v-54.774l-866.383-0.919v55.693h866.383zM51.53 892.952c0 8.332 6.754 15.086 15.086 15.086h355.788l44.176-55.044h-360.114v-187.14l-0.649-156.103v-201.74l-54.396-194.656v779.598z" />
<glyph unicode="&#xe90e;" glyph-name="hat" horiz-adv-x="1717" d="M1662.779 176.204v482.408l42.417 14.355-42.417 14.296-16.708 5.883-793.856 267.501-853.039-287.445 419.283-141.605 439.756-139.016 435.344 141.193 96.717 32.768-0.412 1.059 232.791 78.48v-462.171l-63.36-114.484 81.186-131.839 76.479 132.486zM1640.483 16.539l-30.651 58.83 29.415 61.536 31.592-62.125zM855.216 333.516l-399.399 126.25-20.826-91.246c-4.105-6.445-6.588-14.275-6.706-22.677v-0.032c0-71.655 315.154-250.735 412.753-250.735 100.482 0 447.11 180.903 447.11 250.735-0.218 6.138-1.191 11.961-2.832 17.497l0.126-0.495c-1 4.059-2.294 9.295-3.706 16.237l-20.649 83.833-402.693-130.309z" />
<glyph unicode="&#xe90f;" glyph-name="help" horiz-adv-x="1029" d="M517.155 890.34h-0.013c-248.083-0.127-449.155-201.277-449.155-449.39 0-0.274 0-0.549 0.001-0.78v-0.001c0.001-248.621 201.548-450.168 450.17-450.168s450.17 201.548 450.17 450.17c0 248.622-201.548 450.17-450.17 450.17-0.353 0-0.705 0-1.003-0.001zM517.155 720.203c154.449-0.032 279.643-125.245 279.643-279.698 0-154.473-125.225-279.698-279.698-279.698s-279.698 125.225-279.698 279.698v0c0 0.083 0 0.181 0 0.279 0 154.319 125.1 279.42 279.42 279.42 0.118 0 0.235 0 0.353 0h-0.018zM458.641 987.195h113.128v-390.095h-113.128v390.095zM458.083 263.401h113.128v-390.095h-113.128v390.095zM1072.205 501.694v-113.183h-390.095v113.128h390.095zM-41.796 501.694h390.095v-111.456h-390.095v111.456zM347.742 855.12s-86.936 104.49-220.682-22.626-18.947-213.048-18.947-213.048l-24.52-62.137s-189.475 125.388 2.229 316.925 323.779 2.341 323.779 2.341zM681.552 41.493s86.936-104.49 220.682 22.626 18.947 213.048 18.947 213.048l24.52 62.137s189.475-125.388-2.229-316.98-323.779-2.285-323.779-2.285zM681.552 855.12s86.936 104.49 220.682-22.626 18.947-213.048 18.947-213.048l24.52-62.137s189.475 125.388-2.229 316.925-323.779 2.341-323.779 2.341zM347.742 41.493s-86.936-104.49-220.682 22.626-18.947 213.048-18.947 213.048l-24.52 62.137s-189.475-125.388 2.229-316.98 323.779-2.285 323.779-2.285z" />
<glyph unicode="&#xe910;" glyph-name="lock" horiz-adv-x="740" d="M0 332.572h739.42v-226.199h-739.42v226.199zM705.913 505.444h-80.075v196.327c0 141.769-114.927 256.696-256.696 256.696s-256.696-114.927-256.696-256.696v-196.327h-78.94c-18.436-0.316-33.287-15.226-33.507-33.656v-80.721h739.42v80.7c0.001 0.084 0.001 0.184 0.001 0.284 0 18.474-14.976 33.45-33.45 33.45-0.020 0-0.041 0-0.061 0h0.003zM570.75 505.444h-399.809v196.327c0 110.404 89.5 199.905 199.905 199.905s199.905-89.5 199.905-199.905v0-196.327zM0 51.116v-82.461c0.22-18.451 15.070-33.361 33.477-33.677h672.436c0.017 0 0.037 0 0.058 0 18.474 0 33.45 14.976 33.45 33.45 0 0.080 0 0.16-0.001 0.239v-0.012 82.688h-739.42z" />
<glyph unicode="&#xe911;" glyph-name="message-off" horiz-adv-x="1257" d="M279.273 960h837.818c77.119 0 139.636-62.517 139.636-139.636v0-605.091c0-77.119-62.517-139.636-139.636-139.636v0h-531.875c7.213 19.615 13.021 42.684 16.403 66.533l0.214 1.843h502.179c51.413 0 93.091 41.678 93.091 93.091v0 561.385c0 51.413-41.678 93.091-93.091 93.091v0h-811.706c-51.413 0-93.091-41.678-93.091-93.091v0-262.051c-20.527-3.351-40.495-8.471-59.625-15.267v299.194c0 77.119 62.517 139.636 139.636 139.636v0zM1117.463 248.227c6.029-5.729 9.779-13.807 9.779-22.761 0-17.329-14.048-31.377-31.377-31.377-8.375 0-15.984 3.281-21.611 8.628l0.013-0.013-279.226 265.309-78.243-70.191c-5.527-5.070-12.926-8.177-21.051-8.177-8.003 0-15.301 3.014-20.823 7.97l0.029-0.026-76.195 68.049-65.629-61.347c-13.195 17.107-27.186 32.265-42.398 46.105l-0.284 0.255 61.161 57.251-277.783 248.32c-6.503 5.767-10.581 14.143-10.581 23.472 0 8.060 3.044 15.409 8.046 20.961l-0.025-0.028c5.766 6.489 14.134 10.557 23.451 10.557 8.048 0 15.387-3.035 20.935-8.023l-0.029 0.025 300.591-269.033c1.892-1.401 3.562-2.835 5.124-4.38l-0.004 0.004c0-0.233 0.233-0.465 0.465-0.698l73.821-65.955 378.647 339.782c5.549 4.98 12.923 8.024 21.008 8.024 9.246 0 17.563-3.982 23.327-10.326l0.023-0.026c11.636-12.986 10.473-32.721-2.327-44.358l-274.572-246.225zM256 448c141.385 0 256-114.615 256-256s-114.615-256-256-256v0c-141.385 0-256 114.615-256 256s114.615 256 256 256v0zM133.26 314.74c-6.966-6.987-11.274-16.628-11.274-27.276s4.307-20.289 11.274-27.277l68.188-68.188-68.189-68.189c-6.571-6.905-10.613-16.27-10.613-26.578 0-21.311 17.276-38.586 38.586-38.586 10.308 0 19.673 4.042 26.594 10.628l-0.016-0.015 68.189 68.189 68.189-68.189c7.044-7.403 16.971-12.008 27.973-12.008 21.311 0 38.586 17.276 38.586 38.586 0 11.002-4.605 20.929-11.992 27.958l-0.016 0.015-68.189 68.189 68.189 68.189c6.11 6.804 9.846 15.848 9.846 25.765 0 21.336-17.296 38.633-38.633 38.633-9.916 0-18.96-3.736-25.8-9.878l0.036 0.032-68.189-68.189-68.189 68.189c-6.982 6.977-16.625 11.293-27.276 11.293s-20.294-4.315-27.276-11.293v0z" />
<glyph unicode="&#xe912;" glyph-name="message-on" d="M916.955 24.759h-471.662c8.681 16.969 15.946 36.692 20.785 57.349l0.353 1.787h420.937c32.695 0 59.173 26.478 59.173 59.173v556.544c34.687-12.443 59.071-44.997 59.173-83.261v-502.869c0-49-39.722-88.722-88.722-88.722-0.013 0-0.026 0-0.039 0h0.002zM881.298 179.931c-4.115-4.343-9.924-7.045-16.365-7.045-6.023 0-11.493 2.363-15.535 6.213l0.009-0.009-200.704 190.391-56.32-50.359c-3.968-3.623-9.272-5.842-15.094-5.842-5.745 0-10.986 2.161-14.953 5.715l0.021-0.019-54.784 48.823-80.384-75.045c-9.038 13.091-18.485 24.558-28.805 35.171l0.060-0.062 75.227 70.29-199.717 178.249c-4.638 4.152-7.542 10.157-7.542 16.841 0 12.467 10.106 22.573 22.573 22.573 5.783 0 11.058-2.175 15.052-5.751l-0.022 0.019 216.064-193.097c1.366-1.005 2.571-2.036 3.697-3.148l-0.003 0.003c0-0.183 0.183-0.366 0.366-0.512l53.065-47.36 272.201 243.931c3.814 3.038 8.703 4.875 14.021 4.875 12.482 0 22.601-10.119 22.601-22.601 0-6.138-2.447-11.705-6.418-15.778l0.005 0.005-197.376-176.75 198.217-187.904c4.313-4.117 6.994-9.911 6.994-16.331 0-6.001-2.342-11.454-6.163-15.497l0.010 0.011zM344.795 297.326l-124.453-163.255-90.002 76.507-41.618-48.238 133.851-108.032 161.975 182.638 0.037 12.288c18.651-31.086 29.513-67.291 29.513-106.167 0-114.36-92.707-207.067-207.067-207.067s-207.067 92.707-207.067 207.067c0 114.36 92.707 207.067 207.067 207.067 0.013 0 0.026 0 0.039 0h-0.002c52.955 0 101.12-20.078 137.765-52.809zM147.931 616.338c0.086 38.291 24.474 70.863 58.555 83.116l0.617 0.194v-290.377c-20.37 0-40.119-2.487-59.173-6.802zM848.64 680.558v221.147h-543.634v-219.319c0-62.757-38.839 0.512-38.839 0.512v258.816h621.202v-260.827s-38.839-61.586-38.839-0.366zM408.137 823.406h337.445c13.048 0 23.625-10.577 23.625-23.625s-10.577-23.625-23.625-23.625v0h-337.445c-13.048 0-23.625 10.577-23.625 23.625s10.577 23.625 23.625 23.625v0zM408.137 705.061h337.371c13.018 0 23.57-10.553 23.57-23.57s-10.553-23.57-23.57-23.57h-337.408c-13.028 0-23.589 10.561-23.589 23.589s10.561 23.589 23.589 23.589v0zM467.273 586.752h130.341c12.622-0.513 22.66-10.869 22.66-23.57s-10.038-23.058-22.614-23.569l-0.046-0.001h-130.341c-13.028 0-23.589 10.561-23.589 23.589s10.561 23.589 23.589 23.589v0z" />
<glyph unicode="&#xe913;" glyph-name="phone" horiz-adv-x="900" d="M762.679 256.051c-10.674 15.266-28.169 25.126-47.967 25.126-14.641 0-28.023-5.393-38.268-14.3l0.071 0.061c-28.249-31.025-52.090-62.16-69.998-79.958-8.433-6.887-19.318-11.060-31.178-11.060-11.046 0-21.247 3.62-29.481 9.738l0.132-0.094c-149.295 84.042-264.438 213.779-328.004 369.996l-1.79 4.975c-4.35 6.419-6.945 14.336-6.945 22.859 0 16.658 9.911 31.001 24.158 37.454l0.258 0.105c41.958 25.118 77.891 50.268 111.938 77.666l-1.88-1.463c13.523 7.565 22.514 21.797 22.514 38.129 0 12.486-5.255 23.745-13.675 31.685l-0.022 0.020c-24.984 34.781-123.884 151.317-144.458 176.681-7.823 10.607-20.272 17.411-34.309 17.411-13.387 0-25.328-6.188-33.121-15.859l-0.064-0.082c-23.405-19.051-57.642-47.736-87.089-70.76-25.862-19.871-43.879-48.84-49.269-82.043l-0.1-0.745c-9.471-52.144-9.743-223.981 152.786-464.292 213.204-315.697 473.055-383.626 508.653-387.327 11.75-2.979 25.24-4.688 39.129-4.688 34.963 0 67.395 10.833 94.124 29.325l-0.551-0.361c14.642 14.043 55.9 60.636 77.346 78.053 14.436 8.698 23.942 24.289 23.942 42.101 0 13.262-5.27 25.293-13.83 34.114l0.012-0.012c-19.432 21.609-103.69 117.679-123.067 137.546z" />
<glyph unicode="&#xe914;" glyph-name="services-1" horiz-adv-x="1300" d="M957.479 164.825c-3.897-0.495-8.405-0.777-12.979-0.777-48.033 0-88.796 31.126-103.219 74.308l-0.222 0.768-2.639 1.319c-94.484 47.596-231.129 79.616-335.36 85.209 0 0 34.087-140.642-111.636-152.458 3.938-43.323 17.172-141.174 17.172-141.174 7.286-59.372-28.18-82.038-87.572-89.265-59.53-7.207-104.763 4.569-112.069 64.098l-38.754 280.812-36.884-3.387c-59.53-7.227-105.748 35.072-113.054 94.602l-17.644 143.557c-0.522 3.995-0.821 8.614-0.821 13.303 0 55.215 41.34 100.775 94.756 107.416l0.528 0.054 263.483 32c155.546 19.205 293.443 83.070 403.599 178.187l-0.97-0.819 2.206 1.89c3.705 52.001 43.628 93.633 94.507 99.964l0.529 0.054c3.891 0.493 8.394 0.775 12.962 0.775 55.357 0 101.058-41.342 107.912-94.835l0.057-0.542 70.577-574.326c0.508-3.942 0.798-8.502 0.798-13.129 0-55.242-41.313-100.835-94.728-107.569l-0.534-0.055zM383.685 386.58l-26.466 215.355-251.313-30.523c-17.98-2.23-31.759-17.414-31.759-35.817 0-1.556 0.099-3.089 0.29-4.593l-0.019 0.179 17.644-143.577c2.27-18.016 17.497-31.811 35.945-31.811 1.538 0 3.054 0.096 4.542 0.282l-0.178-0.018 251.313 30.523zM382.602 228.234c108.308-11.815 67.21 92.908 67.21 92.908-33.733-1.438-60.751-14.356-76.012-16.187 0 0 3.879-57.029 8.802-76.721zM828.495 324.923l-54.469 443.274c-96.772-74.751-213.152-129.127-340.006-154.492l-5.279-0.881 26.998-219.687c12.282 0.65 26.664 1.021 41.131 1.021 119.955 0 233.959-25.476 336.898-71.313l-5.273 2.097zM980.126 276.854l-70.558 574.306c-2.27 18.016-17.497 31.811-35.945 31.811-1.538 0-3.054-0.096-4.542-0.282l0.178 0.018c-17.981-2.229-31.761-17.414-31.761-35.817 0-1.563 0.099-3.102 0.292-4.613l-0.019 0.179 70.558-574.326c2.251-18.007 17.464-31.801 35.899-31.801 19.972 0 36.163 16.191 36.163 36.163 0 1.537-0.096 3.052-0.282 4.539l0.018-0.177zM267.146 445.282l-71.798-8.704c-1.307-0.167-2.818-0.262-4.352-0.262-18.438 0-33.659 13.772-35.939 31.59l-0.019 0.18c-0.174 1.331-0.273 2.871-0.273 4.434 0 18.414 13.789 33.608 31.605 35.819l0.176 0.018 71.798 8.724c1.305 0.167 2.815 0.262 4.348 0.262 18.452 0 33.682-13.792 35.944-31.63l0.019-0.179c0.172-1.325 0.271-2.858 0.271-4.414 0-18.414-13.788-33.607-31.603-35.819l-0.176-0.018zM1166.415 767.921l-44.524-56.911c-6.679-8.485-16.95-13.884-28.481-13.884-8.451 0-16.226 2.9-22.382 7.759l0.076-0.058c-8.489 6.682-13.891 16.959-13.891 28.496 0 8.435 2.887 16.196 7.727 22.348l-0.059-0.078 44.524 56.911c6.679 8.48 16.946 13.874 28.474 13.874 8.446 0 16.215-2.896 22.37-7.749l-0.077 0.058c15.754-12.308 18.55-35.052 6.242-50.767zM1216.315 361.826c-6.683-8.468-16.946-13.854-28.468-13.854-8.448 0-16.219 2.896-22.376 7.749l0.077-0.058-57.009 44.603c-9.116 6.647-14.972 17.289-14.972 29.3 0 19.968 16.187 36.155 36.155 36.155 8.921 0 17.088-3.231 23.393-8.587l-0.052 0.043 57.009-44.583c15.754-12.327 18.53-35.052 6.242-50.767zM1268.815 563.614l-101.534-12.327c-1.306-0.167-2.817-0.262-4.35-0.262-18.445 0-33.671 13.782-35.942 31.61l-0.019 0.18c-0.173 1.326-0.271 2.86-0.271 4.417 0 18.407 13.778 33.596 31.583 35.817l0.177 0.018 101.534 12.327c1.306 0.167 2.817 0.262 4.35 0.262 18.445 0 33.671-13.782 35.942-31.61l0.019-0.18c0.173-1.326 0.271-2.86 0.271-4.417 0-18.407-13.778-33.596-31.583-35.817l-0.177-0.018z" />
<glyph unicode="&#xe915;" glyph-name="services-2" horiz-adv-x="940" d="M13.019-54.68c15.673 30.595 1.567 68.838 1.567 68.838l25.579 42.193 37.261-14.712-13.5-53.959c-31.284-8.965-50.887-42.36-50.907-42.36zM34.043 0.909c1.881-4.514 7.168-6.666 11.766-4.786 3.27 1.326 5.534 4.476 5.534 8.156 0 1.228-0.252 2.397-0.707 3.458l0.022-0.057c-1.427 3.236-4.606 5.453-8.304 5.453-1.249 0-2.439-0.253-3.521-0.711l0.059 0.022c-3.275-1.309-5.547-4.456-5.547-8.133 0-1.237 0.257-2.414 0.721-3.48l-0.022 0.056zM771.156 825.020c30.093 19.017 85.619 48.504 113.768 72.035-115.608-96.632-232.929-166.515-232.929-166.515-315.141-198.719-487.487-497.789-551.037-612.289l-11.724-30.929-22.194 8.568 20.814 36.718 0.063-0.084c119.097 211.696 259.511 392.882 366.759 480.862 139.954 114.792 237.464 161.708 316.479 211.634zM88.168 218.666s-12.392 51.346 13.5 106.015c0 0-10.115-61.231 0-72.119 0 0 15.778 116.924 33.792 160.622 0 0 11.243 49.173 118.199 151.886 0 0-3.385-67.751 12.392-86.329 15.757-18.578-25.913 59.037 24.764 158.469 0 0 73.185 100.519 175.626 159.535 0 0-23.615-58.995-16.865-89.59 0 0 11.034 77.573 46.602 107.060 0 0 72.725 41.545 91.867 50.28 0 0-25.913-57.908-24.764-96.131 0 0 32.643 76.487 73.185 124.552 0 0 101.313 54.627 210.505 64.491l-46.143-78.702 70.928 72.119-37.157-56.822 83.299 54.648c-28.735-26.728-61.565-54.021-93.936-79.579-26.666-20.062-56.236-40.061-85.055-54.815-82.087-42.088-179.722-99.767-306.239-198.886-122.128-95.671-318.339-401.345-359.069-485.731h-14.754c-9.446 18.056-10.825 83.696 13.563 169.9 0 0 3.385-76.487 15.757-80.875zM932.509 876.889l-70.907-45.913s45.558 11.494 71.471 26.269v-33.917s-57.407-33.876-124.406-44.262c0 0 61.942 3.26 116.527 22.946 0 0-6.165-27.126-21.191-33.708-14.984-6.541-45.014-34.231-153.098-41.503 0 0 62.276-12.392 141.103 14.587 0 0-12.748-62.652-68.315-104.908 0 0-33.019-18.223-92.306-31.347 0 0 50.28 4.389 82.547 13.124 0 0-52.517-30.845-99.119-38.682l71.367 9.55s-30.009-45.181-135.858-81.607c-105.827-36.404-159.117-32.037-175.626-32.768s-31.514 9.467-99.056-13.124c0 0 71.471 12.392 113.413 0 41.942-12.372 143.067 0 156.317 5.099 0 0-31.807-79.391-108.356-104.908 0 0 3.762 2.236-63.801-23.28-67.563-25.496-108.837-19.665-153.119-29.884 0 0 66.811 2.194 93.832 0 27-2.173 85.535 21.859 85.535 21.859s-153.098-104.176-246.178-118.011c-93.059-13.834-74.188-22.591-74.188-22.591s49.424 13.855 86.204 9.488c36.78-4.389 114.834 39.33 114.834 39.33s-51.033-51.722-136.589-76.487c-67.709-19.602-83.947-26.143-94.73-34.795h-30.553c57.469 103.152 231.34 404.062 543.347 588.424 0 0 79.642 53.332 162.377 118.596 52.767 39.685 93.936 79.579 93.936 79.579s18.599-14.211 14.587-37.157zM50.803 88.513l42.172-16.927-7.858-18.641-42.193 16.886zM924.756 207.402c16.342 1.735 23.343-14.252 6.896-16.029-178.364-19.017-309.164-74.94-451.563-141.688-127.833-59.914-260.389-94.145-419.673-99.516-16.677-0.543-16.593 16.050 0 16.614 178.072 5.977 311.965 51.66 451.354 118.68 126.683 60.897 255.018 105.075 412.985 121.94z" />
<glyph unicode="&#xe916;" glyph-name="services-3" horiz-adv-x="1124" d="M193.255 959.398h609.882c22.178 0 40.157-17.979 40.157-40.157 0-0.007 0-0.014 0-0.021v0.001-309.891l-60.235-105.572v364.624c0 22.207-8.573 31.403-30.74 31.403h-511.398s0.643-117.338 0.643-149.986c0-20.681-9.417-30.72-30.74-30.72h-150.588v-689.574c0-22.187 11.706-33.892 33.872-33.892h655.059c22.187 0 33.892 11.706 33.892 33.892v31.182l60.235 69.451v-153.981c0-22.178-17.979-40.157-40.157-40.157v0h-762.98c-22.178 0-40.157 17.979-40.157 40.157v0 774.887zM250.98 317.49c72.079 0 130.51-58.431 130.51-130.51s-58.431-130.51-130.51-130.51v0c-72.079 0-130.51 58.431-130.51 130.51s58.431 130.51 130.51 130.51v0zM153.359 186.98c0.065-53.866 43.747-97.507 97.621-97.507 53.915 0 97.621 43.707 97.621 97.621 0 13.103-2.581 25.603-7.264 37.019l0.236-0.651-90.594-96.698-81.579 70.877 22.588 26.363 58.368-52.083 70.495 83.245c-17.748 18.188-42.503 29.468-69.893 29.468-53.915 0-97.621-43.707-97.621-97.621 0-0.004 0-0.009 0-0.013v0.001zM433.774 63.177s39.113 71.319 66.098 151.632c11.244 33.471 38.47 36.804 51.863 13.392 13.392-23.432 16.324-68.628 25.098-98.726 12.991 14.356 17.709 43.711 37.948 38.872 19.777-4.718 20.821-28.833 29.616-42.647 4.987-7.717 11.774-19.13 18.295-30.714l2.185-4.223 40.799 47.064 1.526-0.442c-3.614 17.669-7.59 47.847-1.104 78.045 10.039 46.863 81.679 184.922 142.216 291.137 73.587 129.144 159.342 231.504 192.010 265.678 14.236 14.878 48.991 23.693 65.094 13.894 15.079-9.156 25.339-35.137 20.641-57.023-6.827-31.905-28.17-81.719-54.252-135.228 13.894-9.035 25.62-16.464 32.507-20.4 23.432-13.372 25.62-43.771 6.686-81.98-16.946-34.214-60.235-100.392-68.588-118.784-8.373-18.412-45.176-1.687-35.137 16.725s66.921 110.431 73.608 120.471c6.706 10.039 11.726 25.098-3.333 36.804-2.972 2.309-10.943 7.831-21.685 15.139-27.768-54.714-58.388-110.331-82.061-152.335-51.863-92.040-146.753-226.364-174.020-254.333-16.705-17.127-49.192-26.122-69.873-30.318-12.248-13.533-47.767-52.686-56.019-62.323-10.039-11.726-21.544-5.24-28.25 3.132-6.686 8.353-26.604 50.136-30.74 60.035-4.819 11.485-6.064-2.108-18.834-22.608-11.324-18.191-31.363-33.872-39.735-10.441-8.353 23.411-18.392 73.206-22.789 95.774-4.397 22.588-6.907 18.211-21.966-21.323s-56.461-116.073-56.461-116.073zM682.446 638.966v-40.157h-180.284v40.157zM461.583 638.966v-40.157h-300.755v40.157zM682.446 538.574v-40.157h-300.755v40.157zM341.112 538.574v-40.157h-180.284v40.157zM682.446 739.358v-40.157l-341.133-0.201v40.157zM642.289 337.789v-40.157h-180.907v40.157zM682.446 438.182v-40.157l-521.818-0.201v40.157z" />
<glyph unicode="&#xe917;" glyph-name="services-4" horiz-adv-x="1195" d="M1130.24 253.013v617.664c0 13.867-11.264 25.109-25.131 25.109h-1015.552c-13.867 0-25.109-11.243-25.109-25.109v-674.667c0-13.867 11.243-25.109 25.109-25.109h647.595c10.155-0.96 20.437-1.557 30.848-1.557s20.693 0.597 30.827 1.557h150.976l66.091-64.448h-271.616c12.736-124.011 125.675-127.317 130.411-127.317 13.867 0 25.109-4.139 25.109-18.005s-11.243-25.109-25.109-25.109h-577.557c-13.867 0-25.109 11.243-25.109 25.109s11.243 18.005 25.109 18.005c11.947 0.107 118.187 6.613 130.411 127.317h-352.213c-41.598 0.012-75.316 33.73-75.328 75.327v703.126c0.012 41.593 33.733 75.307 75.328 75.307h1044.011c41.6 0 75.307-33.707 75.307-75.307v-693.056zM715.776 0.469c-20.203 20.843-33.579 59.221-36.181 105.984h-187.627c-0.171-36.117-18.411-85.12-38.613-105.984zM597.099 768.235h-169.536v42.667h276.053c-40.27-8.392-75.952-23.189-107.825-43.443l1.308 0.777zM213.312 682.688l292.245 0.128c-9.016-12.296-17.692-26.266-25.284-40.89l-0.849-1.798-266.091-0.128zM214.229 576.235h240.875c-3.327-11.817-6.25-26.276-8.17-41.050l-0.172-1.617h-232.533zM214.229 469.568h126.208v-42.667h-126.208zM445.205 469.568c1.067-14.507 2.773-28.779 5.675-42.667h-65.984v42.667zM573.184 234.901h-188.288v42.667h141.888c14.016-15.61 29.198-29.607 45.6-42.083l0.8-0.584zM214.229 234.901v42.667h126.208v-42.667zM214.229 384.235h249.003c5.269-14.72 11.349-29.013 18.581-42.667h-267.584zM768 213.355c-153.173 0-277.333 124.16-277.333 277.333s124.16 277.333 277.333 277.333 277.333-124.16 277.333-277.333c0-59.712-19.051-114.859-51.136-160.107l145.707-136.405c7.492-7.49 12.126-17.838 12.126-29.269s-4.634-21.779-12.126-29.269v0l-16.704-16.725c-7.493-7.493-17.845-12.128-29.28-12.128s-21.787 4.635-29.28 12.128v0l-147.584 138.155c-42.114-27.424-93.65-43.733-148.994-43.733-0.022 0-0.044 0-0.065 0h0.004zM768 703.68c-0.059 0-0.129 0-0.198 0-59.373 0-113.052-24.376-151.576-63.667l-0.034-0.035 215.829 0.085v-64.448l-259.264 0.107c-11.218-25.016-17.752-54.221-17.752-84.952 0-39.426 10.755-76.339 29.491-107.967l-0.539 0.983h248.064v-63.787h-191.061c34.94-26.424 79.119-42.325 127.012-42.325 0.010 0 0.020 0 0.030 0h-0.002c117.632 0 212.992 95.36 212.992 212.992 0 117.653-95.36 213.013-212.992 213.013zM872.107 393.835c25.28 17.344 51.733 65.109 49.152 114.453l27.221 3.733c2.133-62.891-26.475-117.824-57.301-140.757zM597.547 511.488h234.453v-63.573h-234.453z" />
<glyph unicode="&#xe918;" glyph-name="settings" horiz-adv-x="1075" d="M2.525 866.18l71.343-119.39c2.516-4.066 6.526-7.003 11.246-8.059l0.118-0.022 66.924-15.91 184.357-173.56 97.229 92.368-184.357 173.56-17.047 63.641c-1.392 4.528-4.304 8.239-8.128 10.623l-0.080 0.046-125.64 68.187c-2.555 1.411-5.601 2.24-8.841 2.24-4.882 0-9.323-1.885-12.637-4.966l0.011 0.011-71.343-68.25c-3.533-2.823-5.776-7.132-5.776-11.964 0-3.192 0.979-6.156 2.653-8.607l-0.034 0.053zM859.91 550.501c1.697-0.049 3.693-0.078 5.696-0.078 113.458 0 205.805 90.388 208.959 203.083l0.006 0.292c0.003 0.394 0.004 0.86 0.004 1.326 0 17.614-2.305 34.689-6.63 50.941l0.312-1.38c-2.262 7.689-9.255 13.206-17.536 13.206-1.621 0-3.192-0.211-4.688-0.608l0.127 0.029c-3.201-0.836-5.966-2.393-8.219-4.493l0.011 0.010-111.119-106.068-89.022 28.032-29.042 84.223 111.119 106.194c3.199 3.033 5.19 7.314 5.19 12.059s-1.991 9.026-5.182 12.052l-0.007 0.007c-2.155 2.23-4.958 3.82-8.107 4.465l-0.101 0.017c-16.15 4.348-34.693 6.846-53.818 6.846-97.182 0-179.302-64.484-205.908-152.998l-0.393-1.522c-4.287-15.113-6.814-32.489-6.945-50.434v-0.075c0.225-14.278 1.824-28.049 4.669-41.358l-0.249 1.393-392.074-373.575c-12.693 2.597-27.303 4.111-42.257 4.167h-0.044c-108.64-5.665-194.585-95.135-194.585-204.677 0-113.185 91.754-204.939 204.939-204.939 113.181 0 204.934 91.749 204.939 204.929v0.001c-0.226 14.278-1.824 28.049-4.669 41.358l0.249-1.393 94.072 89.4 41.038-39.081c3.291-3.099 7.737-5.003 12.627-5.003s9.337 1.904 12.636 5.012l-0.009-0.009 8.839 8.523c3.717 3.452 8.714 5.571 14.206 5.571s10.489-2.118 14.219-5.583l-0.013 0.012c3.499-3.439 5.667-8.222 5.667-13.511s-2.168-10.072-5.664-13.508l-0.003-0.003-8.839-8.523c-3.216-3.025-5.219-7.308-5.219-12.059s2.003-9.034 5.21-12.051l0.009-0.008 213.399-203.487c26.765-25.247 62.947-40.765 102.753-40.765 39.351 0 75.16 15.165 101.902 39.969l-0.096-0.088c26.479 24.394 43.009 59.238 43.009 97.943 0 38.099-16.016 72.456-41.682 96.708l-0.064 0.060c-0.631 0-0.631 0.568-1.263 0.884l-213.399 203.487c-3.297 3.085-7.741 4.98-12.627 4.98s-9.331-1.895-12.638-4.99l0.010 0.010-9.47-8.523c-3.711-3.466-8.71-5.594-14.206-5.594s-10.495 2.128-14.218 5.605l0.012-0.011c-3.499 3.439-5.667 8.222-5.667 13.511s2.168 10.072 5.664 13.508l0.003 0.003 9.47 8.523c3.199 3.033 5.19 7.314 5.19 12.059s-1.991 9.026-5.182 12.052l-0.007 0.007-41.038 39.081 93.441 89.463c12.657-2.719 27.249-4.344 42.195-4.482l0.106-0.001zM726.062 582.953l-348.51-322.561-35.987 33.904 349.141 322.561zM279.692 39.985h-128.797l-63.767 101.017 63.767 101.017h128.797l63.136-101.017zM481.095 236.4l292.319 277.293 56.822-59.6-292.95-277.293zM1006.385 46.993l-43.564-41.607-241.179 226.089 43.564 41.607z" />
<glyph unicode="&#xe919;" glyph-name="user" horiz-adv-x="784" d="M698.753 228.317l-162.623 81.433c-15.003 7.481-25.132 22.712-25.144 40.309v57.63c4.032 4.777 8.031 10.065 11.745 15.561l0.421 0.661c20.43 28.435 37.588 61.147 49.863 96.155l0.83 2.717c23.599 10.962 39.682 34.437 39.743 61.675v68.18c-0.247 17.199-6.821 32.816-17.493 44.672l0.055-0.062v90.883c0.373 3.987 0.585 8.623 0.585 13.308 0 37.434-13.565 71.699-36.047 98.15l0.179-0.216c-45.698 37.476-104.752 60.192-169.112 60.192s-123.415-22.716-169.583-60.567l0.471 0.375c-22.482-26.692-36.143-61.458-36.143-99.415 0-4.176 0.165-8.314 0.49-12.406l-0.034 0.54v-90.68c-10.343-11.909-16.742-27.485-17.032-44.549l-0.001-0.061v-68.213c0.146-21.37 10.026-40.402 25.422-52.905l0.127-0.1c16.923-48.309 43.266-89.579 77.056-123.41l-0.003 0.003v-56.411c-0.136-16.954-9.491-31.692-23.293-39.463l-0.229-0.118-169.112-82.974c-48.177-26.598-80.272-77.071-80.298-135.043v-55.158c0-81.109 256.71-102.359 392.162-102.359s392.162 21.372 392.162 102.359v51.707c0.001 0.194 0.001 0.425 0.001 0.655 0 59.736-34.303 111.459-84.286 136.546l-0.88 0.4z" />
<glyph unicode="&#xe91a;" glyph-name="checklist" horiz-adv-x="958" d="M727.106 214.495v644.327h-628.009v-824.65h394.372l66.065-66.065h-488.679c-21.651 0.148-39.17 17.632-39.374 39.256v880.329c0.204 21.643 17.723 39.127 39.36 39.275h682.626c21.623-0.185 39.105-17.655 39.308-39.256v-588.984zM591.674 729.038h-363.355c-18.544 0-33.577-15.033-33.577-33.577s15.033-33.577 33.577-33.577v0h363.355c0.015 0 0.032 0 0.050 0 18.544 0 33.577 15.033 33.577 33.577 0 18.527-15.005 33.549-33.525 33.577h-0.003zM904.225 254.101c-7.555 6.759-17.584 10.89-28.578 10.89-12.766 0-24.232-5.571-32.097-14.414l-0.038-0.043-150.825-177.284-75.776 71.482c-7.693 7.351-18.141 11.876-29.646 11.876-23.717 0-42.943-19.226-42.943-42.943 0-12.211 5.097-23.232 13.28-31.051l0.016-0.016 107.916-102.169c7.593-7.515 18.042-12.158 29.575-12.158 0.147 0 0.294 0.001 0.441 0.002h1.431c11.952 0.588 22.54 5.976 29.957 14.262l0.036 0.041 180.092 210.085c7.134 7.669 11.512 17.986 11.512 29.325 0 12.74-5.526 24.188-14.312 32.080l-0.040 0.035zM591.806 563.877h-363.355c-18.544 0-33.577-15.033-33.577-33.577s15.033-33.577 33.577-33.577v0h363.355c18.537 0.009 33.561 15.039 33.561 33.577 0 18.544-15.033 33.577-33.577 33.577-0.006 0-0.012 0-0.017 0h0.001zM591.806 398.716h-363.355c-18.544 0-33.577-15.033-33.577-33.577s15.033-33.577 33.577-33.577v0h363.355c18.537 0.009 33.561 15.039 33.561 33.577 0 18.544-15.033 33.577-33.577 33.577-0.006 0-0.012 0-0.017 0h0.001zM393.612 233.555h-165.161c-18.544 0-33.577-15.033-33.577-33.577s15.033-33.577 33.577-33.577v0h165.161c18.537 0.009 33.561 15.039 33.561 33.577 0 18.544-15.033 33.577-33.577 33.577-0.006 0-0.012 0-0.017 0h0.001z" />
<glyph unicode="&#xe91b;" glyph-name="return" horiz-adv-x="956" d="M955.96 834.793l-37.577-275.014-221.955 172.504 68.641 27.055c-66.629 50.65-150.985 81.142-242.462 81.142-222.475 0-402.826-180.351-402.826-402.826 0-78.355 22.371-151.484 61.075-213.35l-0.986 1.691-99.203-66.687c-50.515 78.973-80.519 175.294-80.519 278.623 0 288.47 233.851 522.321 522.321 522.321 143.502 0 273.487-57.87 367.892-151.545l-0.034 0.033zM205.421 164.218c0.045 0 0.097 0 0.15 0 33.011 0 59.773-26.761 59.773-59.773s-26.761-59.773-59.773-59.773c-33.011 0-59.772 26.761-59.773 59.772v0c0 0.045 0 0.097 0 0.15 0 32.928 26.694 59.622 59.622 59.622 0 0 0 0 0 0v0zM347.212 60.054c27.345-0.029 49.502-22.203 49.502-49.552 0-27.367-22.185-49.552-49.552-49.552s-49.552 22.185-49.552 49.552v0c0 0.015 0 0.033 0 0.050 0 27.339 22.163 49.502 49.502 49.502 0.035 0 0.070 0 0.106 0h-0.005zM499.023 17.367c22.413 0 40.583-18.17 40.583-40.583s-18.17-40.583-40.583-40.583c-22.413 0-40.583 18.17-40.583 40.583v0c0.141 22.356 18.227 40.442 40.57 40.583h0.014zM633.8 13.91c16.632-0.142 30.061-13.659 30.061-30.311 0-16.741-13.571-30.312-30.312-30.312s-30.312 13.571-30.312 30.312c0 0.088 0 0.175 0.001 0.263v-0.013c0 0.001 0 0.003 0 0.004 0 16.603 13.459 30.062 30.062 30.062 0.176 0 0.352-0.002 0.527-0.005h-0.026zM755.549 53.992c0.303 0.016 0.657 0.025 1.014 0.025 11.345 0 20.542-9.197 20.542-20.542s-9.197-20.542-20.542-20.542c-0.357 0-0.711 0.009-1.064 0.027l0.049-0.002c-11.359 0-20.567 9.208-20.567 20.567s9.208 20.567 20.567 20.567v0z" />
<glyph unicode="&#xe91c;" glyph-name="write" horiz-adv-x="999" d="M965.492 99.679s-4.303 76.194-144.571 116.186-162.337 73.233-162.337 73.233c-9.278 45.48 27.359 56.139 54.046 58.034l-127.477 256.612c-5.369-1.382-11.015-2.882-16.897-4.54l40.11-78.602c0.717-1.811 1.132-3.908 1.132-6.103 0-7.207-4.48-13.367-10.807-15.847l-0.116-0.040-2.842-1.421c-2.899-1.537-6.333-2.453-9.977-2.487h-0.011c-0.249-0.015-0.541-0.024-0.834-0.024-5.439 0-10.179 2.988-12.669 7.413l-0.038 0.073-43.742 85.669c-149.23-42.44-176.273-42.716-289.971-68.14-47.539-11.501-102.117-18.097-158.236-18.097-19.994 0-39.792 0.837-59.362 2.479l2.558-0.173s-52.704-277.733 0-276.351c42.102-1.477 81.783-10.039 118.479-24.526l-2.412 0.839c152.388-74.773 410.145-56.257 367.429-68.377s-56.257-22.069-51.994-66.916 109.672-19.226 109.672-19.226c-0.105-1.604-0.165-3.477-0.165-5.364 0-17.885 5.367-34.517 14.578-48.372l-0.201 0.322c18.516-36.32 149.546 49.862 149.546 49.862-2.423-5.243-3.836-11.379-3.836-17.844 0-23.333 18.403-42.369 41.486-43.384l0.092-0.003c56.257-3.553 53.415 55.547 66.245 56.257 15.689-0.447 30.662-1.995 45.278-4.574l-1.851 0.271c118.041-18.831 89.696 63.166 89.696 63.166zM994.667 133.868c11.409 55.547-1.382 84.011-29.885 180.852s-67.114 116.778-163.797 193.683c-64.469 51.322-72.167 96.052-122.384 105.211l156.81-320.528c7.634-10.874 13.929-23.429 18.242-36.872l0.274-0.989 20.174-41.295c20.175-8.388 37.455-19.793 52.176-33.855l-0.064 0.061c118.436-118.199 15.318-147.769 15.318-147.769 81.524-8.883 53.020 101.5 53.020 101.5zM731.818 347.329l46.348-93.367 68.535-23.095-212.435 434.266-47.848-25.108 15.792-31.859zM581.798 649.105l47.927 25.148 7.659 3.948 7.619 3.948 1.579 0.829c-5.685 10.659-11.844 21.911-18.358 33.399-3.435 6.159-6.988 12.357-10.62 18.673-47.544 85.348-98.871 159.004-156.64 227.016l1.646-1.987-21.634-11.37c24.133-89.636 53.699-167.043 90.010-240.52l-3.394 7.596-9.159-4.777-5.764-3.040 14.054-27.635 4.856 2.527 4.54 2.408 4.58 2.408c7.896-16.818 15.792-32.925 23.687-47.73l2.092 1.105 7.659 3.948zM491.274 731.102c-1.147 1.719-3.079 2.837-5.272 2.837-0.229 0-0.455-0.012-0.678-0.036l0.028 0.002c-2.254-0.019-4.372-0.587-6.232-1.575l0.073 0.036-2.803-1.461c-2.846-1.345-5.039-3.68-6.17-6.55l-0.029-0.082c-0.267-0.58-0.423-1.259-0.423-1.974s0.156-1.394 0.435-2.004l-0.012 0.030 109.277-214.291c1.717-1.766 4.114-2.861 6.768-2.861 1.984 0 3.825 0.612 5.344 1.658l-0.032-0.021 2.842 1.421c3.648 1.276 6.218 4.689 6.218 8.702 0 0.637-0.065 1.258-0.188 1.858l0.010-0.059-40.861 80.142zM945.753-39.957c1.027 6.109 1.614 13.147 1.614 20.322 0 15.357-2.689 30.086-7.621 43.741l0.283-0.897c-10.833-1.503-23.348-2.362-36.065-2.362-10.242 0-20.353 0.557-30.306 1.642l1.231-0.109c28.109-53.296 45.835-66.916 55.744-69.127v-0.237c-0.74-1.567-1.173-3.404-1.173-5.341 0-7.043 5.709-12.752 12.752-12.752s12.752 5.709 12.752 12.752c0 5.781-3.847 10.663-9.12 12.227l-0.090 0.023z" />
<glyph unicode="&#xe91d;" glyph-name="star" horiz-adv-x="1078" d="M1078.435 568.988l-334.236-241.221 127.67-391.843-332.5 243.561-333.406-242.504 128.349 391.541-333.708 241.598 412.227-1.283 127.141 392.069 126.16-392.598z" />
<glyph unicode="&#xe91e;" glyph-name="close" d="M1041.222 12.521l-90.484-93.091-438.737 438.179-438.831-438.551-90.484 93.091 437.527 437.527-431.663 431.197 90.484 93.091 432.966-432.873 432.873 433.152 90.484-93.091-431.476-431.569z" />
<glyph unicode="&#xe91f;" glyph-name="webcam" horiz-adv-x="958" d="M304.161 194.787h400.892l121.187-251.87h-643.169zM488.723 950.917h0.005c-0.034 0-0.069 0-0.102 0-235.413 0-426.254-190.841-426.254-426.254v0c0-235.413 190.841-426.254 426.254-426.254s426.254 190.841 426.254 426.254c0 235.379-190.785 426.198-426.157 426.254zM495.226 885.885c0.155 0 0.338 0 0.521 0 198.384 0 359.205-160.822 359.205-359.205s-160.822-359.205-359.205-359.205c-198.384 0-359.205 160.821-359.205 359.205v0c0 0.078 0 0.168 0 0.26 0 198.149 160.554 358.798 358.672 358.945h0.014zM494.967 757.186v0c-126.318 0-228.719-102.401-228.719-228.719v0c0-126.318 102.401-228.719 228.719-228.719s228.719 102.401 228.719 228.719c0 126.318-102.401 228.719-228.719 228.719zM495.454 658.691c72.192 0 130.715-58.523 130.715-130.715s-58.523-130.715-130.715-130.715c-72.18 0-130.696 58.504-130.715 130.681v0.002c0 0.020 0 0.042 0 0.065 0 72.192 58.523 130.715 130.715 130.715v0zM422.423 683.18c0.010 0 0.021 0 0.033 0 40.711 0 73.714-33.003 73.714-73.714s-33.003-73.714-73.714-73.714c-40.711 0-73.714 33.003-73.714 73.714 0 0.012 0 0.023 0 0.034v-0.002c0.019 40.697 33.014 73.681 73.714 73.681v0z" />
<glyph unicode="&#xe920;" glyph-name="buble" horiz-adv-x="1137" d="M1138.162 537.081c0 299.243-249.081 422.054-563.027 422.054-363.243 0-576-181.622-576-429.838 0-513.73 784.432-441.081 576-441.081 43.456 0.137 85.992 3.591 127.506 10.122l-4.695-0.608 270.703-153.946c7.638-4.744 16.872-7.619 26.766-7.783l0.045-0.001c12.702 0.168 24.393 4.36 33.891 11.357l-0.161-0.113c12.8 9.999 20.951 25.435 20.951 42.775 0 5.091-0.703 10.017-2.016 14.688l0.092-0.381-81.297 220.541c103.392 66.999 170.916 181.686 171.243 312.167v0.049zM306.162 587.243c-35.107 0-63.568-28.46-63.568-63.568s28.46-63.568 63.567-63.568v0c35.107 0 63.568 28.46 63.568 63.568s-28.46 63.568-63.567 63.568v0zM485.189 587.243c-0.128 0.001-0.279 0.001-0.431 0.001-35.107 0-63.568-28.46-63.568-63.568s28.46-63.568 63.568-63.568c35.107 0 63.568 28.46 63.568 63.568 0 0.152-0.001 0.303-0.002 0.454v-0.023c-0.195 34.79-28.345 62.94-63.116 63.135h-0.019zM664.216 587.243c-34.92-0.246-63.134-28.611-63.134-63.566 0-35.107 28.46-63.568 63.568-63.568s63.568 28.46 63.568 63.568c0 0.152-0.001 0.303-0.002 0.454v-0.023c-0.195 34.911-28.541 63.137-63.48 63.137-0.183 0-0.365-0.001-0.548-0.002h0.028zM844.108 587.243c-0.128 0.001-0.279 0.001-0.431 0.001-35.107 0-63.568-28.46-63.568-63.568s28.46-63.568 63.568-63.568c35.107 0 63.568 28.46 63.568 63.568 0 0.152-0.001 0.303-0.002 0.454v-0.023c-0.291 34.751-28.384 62.844-63.107 63.135h-0.028z" />
<glyph unicode="&#xe921;" glyph-name="check" horiz-adv-x="1050" d="M196.863 507.915l239.66-295.684 596.036 747.769 17.897-391.392-596.815-631.83-453.641 373.495z" />
<glyph unicode="&#xe922;" glyph-name="edit" horiz-adv-x="1092" d="M1016.755 555.069c-24.362-0.225-44.051-19.915-44.277-44.255v-441.984c0-0.048 0-0.105 0-0.161 0-24.364-19.751-44.116-44.116-44.116-0.057 0-0.113 0-0.17 0h-795.362c-24.362 0.225-44.051 19.915-44.277 44.255v722.94c0 0.048 0 0.105 0 0.161 0 24.364 19.751 44.116 44.116 44.116 0.057 0 0.113 0 0.17 0h530.507c24.453 0 44.277 19.823 44.277 44.277s-19.823 44.277-44.277 44.277h-530.516c-73.323-0.092-132.739-59.507-132.83-132.821v-722.927c0.092-73.323 59.507-132.739 132.821-132.83h795.38c73.323 0.092 132.739 59.507 132.83 132.821v441.971c-0.225 24.362-19.915 44.051-44.255 44.277h-0.022zM1050.566 918.943c-24.784 25.27-59.255 40.963-97.391 41.057h-0.018c-0.196 0.001-0.427 0.002-0.659 0.002-37.964 0-72.255-15.727-96.714-41.021l-0.036-0.038-474.164-473.358c-4.035-3.895-7.094-8.774-8.792-14.252l-0.064-0.238-72.453-215.748c-1.085-3.31-1.711-7.12-1.711-11.076 0-16.105 10.371-29.788 24.798-34.734l0.258-0.077c3.356-0.938 7.226-1.519 11.217-1.609l0.054-0.001c4.074 0.155 7.938 0.733 11.648 1.693l-0.377-0.083 215.748 72.453c5.717 1.761 10.596 4.82 14.481 8.845l0.010 0.010 474.164 473.358c24.646 25.058 39.862 59.456 39.862 97.409s-15.216 72.351-39.88 97.428l0.019-0.019z" />
<glyph unicode="&#xe923;" glyph-name="Door" horiz-adv-x="757" d="M221.852-64.757v935.713l-178.087-0.623v-844.8h-44.522v889.188l222.609 0.757v43.765l535.018-82.054v-857.043zM330.841 517.454c-24.176-7.904-41.333-30.254-41.333-56.612 0-3.832 0.363-7.579 1.055-11.21l-0.059 0.372c-0.634-3.259-0.996-7.006-0.996-10.838 0-26.358 17.157-48.709 40.913-56.493l0.42-0.119c24.176 7.904 41.333 30.254 41.333 56.612 0 3.832-0.363 7.579-1.055 11.21l0.059-0.372c0.63 3.25 0.99 6.986 0.99 10.808 0 26.364-17.152 48.722-40.906 56.523l-0.42 0.12z" />
</font>
</defs>
</svg>
